<?xml version="1.0" standalone="no"?><!-- Generator: Gravit.io --><svg xmlns="http://www.w3.org/2000/svg" xmlns:xlink="http://www.w3.org/1999/xlink" style="isolation:isolate" viewBox="0.28127262012009446 0.4567269981380757 19.437454759759813 17.086546003723846"><path d=" M 1.0995486477802814 16.32503011377863 C 3.9708644107623385 11.356227170030053 6.842180173744399 6.388623422864838 9.713495936726456 1.4198216769951761 C 9.794951703052188 1.277274085925145 9.874011711544812 1.1754543780179798 9.999788997783075 1.1754543780179798 C 10.127962041854447 1.1754543780179798 10.204626292513959 1.27607620700859 10.287279937756248 1.4210195559117316 C 13.158594742435172 6.388623422864839 16.02991050541723 11.356227170030053 18.90122626839929 16.32503011377863 C 18.985077792558133 16.46877558376522 19.034190828136886 16.586167717587596 18.97190112447603 16.696372577910648 C 18.909611420815175 16.80537955931714 18.782636255660357 16.823347743065465 18.617328965175783 16.82454562198202 L 1.3822480720872328 16.82454562198202 C 1.2181386605192124 16.823347743065465 1.0911634953643983 16.80537955931714 1.028873791703539 16.696372577910648 C 0.9653862091261303 16.586167717587596 1.0144992447048828 16.46877558376522 1.0995486477802814 16.32503011377863 Z " fill-rule="evenodd" fill="rgb(246,234,46)" stroke-width="1.4374547597598082" stroke="rgb(44,44,43)" stroke-linejoin="round" stroke-linecap="butt"/><path d=" M 9.541577552501419 11.196773075295443 L 8.72860108941395 6.468104126432954 C 8.71454996972276 6.389184269773569 8.708057465995031 6.308103439548719 8.708057465995031 6.229184181828792 C 8.708057465995031 5.549181262570788 9.151302612093254 5.2108014315250735 10.038873391072428 5.2108014315250735 C 10.92644536793052 5.2108014315250735 11.36969051402874 5.5470190911264075 11.36969051402874 6.222697667495647 C 11.36969051402874 6.314590552821322 11.362143876854445 6.397833554490554 11.349146890609825 6.468104126432954 L 10.536170427522356 11.196773075295443 L 9.541571563106835 11.196773075295443 L 9.541577552501419 11.196773075295443 Z  M 10.03887698470918 12.168670576999656 C 10.814014848580515 12.168670576999656 11.202125221786464 12.55677975232669 11.202125221786464 13.33083712941529 C 11.202125221786464 14.108138362609921 10.814014848580515 14.496247537936954 10.03887698470918 14.496247537936954 C 9.261575751514549 14.496247537936954 8.873466576187516 14.108138362609921 8.873466576187516 13.33083712941529 C 8.873466576187516 12.556779752326689 9.261575751514549 12.168670576999656 10.03887698470918 12.168670576999656 Z " fill-rule="evenodd" fill="rgb(44,44,43)" stroke-width="1.2499999845872805" stroke="rgba(0,0,0,0)" stroke-linecap="butt"/></svg>