<?xml version="1.0" standalone="no"?><!-- Generator: Gravit.io --><svg xmlns="http://www.w3.org/2000/svg" xmlns:xlink="http://www.w3.org/1999/xlink" style="isolation:isolate" viewBox="0.24999997799410134 0.42545494835410735 19.500000044011795 17.149090103291783"><path d=" M 1.0995486421491587 16.325029549692452 C 3.9708643026048733 11.356227485951095 6.842179903166646 6.388623899997958 9.713495503728419 1.4198222555141975 C 9.794951265446482 1.2772746725075845 9.874011269466957 1.1754549703600041 9.99978854859044 1.1754549703600041 C 10.12796158541151 1.1754549703600041 10.204625831734395 1.2760767936587896 10.287279472301256 1.4210201343629927 C 13.158595072863028 6.388623899997958 16.0299106734248 11.356227485951095 18.901226273986573 16.325029549692452 C 18.98507779340223 16.468775011547862 19.034190826202828 16.586167138729778 18.971901126065482 16.696371992818925 C 18.90961142592814 16.805378968059276 18.782636267955862 16.823347150791204 18.617328986822145 16.824545029639996 L 1.3822480504647943 16.824545029639996 C 1.2181386481798704 16.823347150791204 1.0911634902075935 16.805378968059276 1.02887379007025 16.696371992818925 C 0.9653862110841115 16.586167138729778 1.0144992438847091 16.468775011547862 1.0995486421491587 16.325029549692452 Z " fill-rule="evenodd" fill="rgb(234,42,43)" stroke-width="1.5000000440117935" stroke="rgb(44,44,43)" stroke-linejoin="round" stroke-linecap="butt"/><path d=" M 9.6338432684051 11.709650619802671 L 8.820866851304865 6.980981938424441 C 8.806815732408499 6.902062086229275 8.800323229048029 6.820981260590884 8.800323229048029 6.742062007335143 C 8.800323229048029 6.062059126542525 9.243568350073424 5.723679194849889 10.131139078845825 5.723679194849889 C 11.018711005497074 5.723679194849889 11.46195612652247 6.0598969552204505 11.46195612652247 6.735575493368918 C 11.46195612652247 6.827468373496534 11.454409489775061 6.910711370457 11.441412504265633 6.980981938424441 L 10.628436087165397 11.709650619802671 L 9.633837279010853 11.709650619802671 L 9.6338432684051 11.709650619802671 Z  M 10.13114267248237 12.681548066530045 C 10.906280492506868 12.681548066530045 11.294390843758771 13.0696572199031 11.294390843758771 13.84371455320598 C 11.294390843758771 14.621015742431402 10.906280492506868 15.009124895804456 10.13114267248237 15.009124895804456 C 9.35384148325695 15.009124895804456 8.965732329883895 14.621015742431402 8.965732329883895 13.84371455320598 C 8.965732329883895 13.069657219903098 9.35384148325695 12.681548066530045 10.13114267248237 12.681548066530045 Z " fill-rule="evenodd" fill="rgb(255,255,255)" stroke-width="1.2499999845931618" stroke="rgba(0,0,0,0)" stroke-linecap="butt"/></svg>