<?xml version="1.0" standalone="no"?><!-- Generator: Gravit.io --><svg xmlns="http://www.w3.org/2000/svg" xmlns:xlink="http://www.w3.org/1999/xlink" style="isolation:isolate" viewBox="1.4500003750000303 0.45000037500005874 17.09999924999994 17.09999924999994"><path d=" M 10 0.45000037500005874 C 14.718749793037261 0.45000037500005874 18.54999962499997 4.280000207017622 18.54999962499997 9.000000000000057 C 18.54999962499997 13.718749793037261 14.718749793037261 17.549999624999998 10 17.549999624999998 C 5.280000207017537 17.549999624999998 1.4500003750000303 13.718749793037261 1.4500003750000303 9.000000000000057 C 1.4500003750000303 4.280000207017622 5.280000207017537 0.45000037500005874 10 0.45000037500005874 Z " fill-rule="evenodd" fill="rgb(9,85,160)" stroke-width="1.2499999451754344" stroke="rgba(0,0,0,0)" stroke-linecap="butt"/><path d=" M 9.307500030372807 10.871249917927685 L 8.175000080043844 4.280000207017622 C 8.156250080866243 4.170000211842137 8.146250081304828 4.057500216776361 8.146250081304828 3.947500221600933 C 8.146250081304828 3.000000263157972 8.763750054221504 2.5275002838816363 10 2.5275002838816363 C 11.236249945778496 2.5275002838816363 11.852499918749999 2.996250263322395 11.852499918749999 3.937500222039546 C 11.852499918749999 4.066250216392632 11.843749919133757 4.182500211293927 11.823749920010954 4.280000207017622 L 10.69124996968202 10.871249917927685 L 9.307500030372807 10.871249917927685 Z  M 10 12.227499858443025 C 11.078749952686394 12.227499858443025 11.619999928947351 12.768749834703954 11.619999928947351 13.847499787390348 C 11.619999928947351 14.929999739912262 11.078749952686394 15.471249716173247 10 15.471249716173247 C 8.917500047478057 15.471249716173247 8.3762500712171 14.929999739912262 8.3762500712171 13.847499787390348 C 8.3762500712171 12.768749834703954 8.917500047478057 12.227499858443025 10 12.227499858443025 Z " fill-rule="evenodd" fill="rgb(255,255,255)" stroke-width="1.2499999451754344" stroke="rgba(0,0,0,0)" stroke-linecap="butt"/></svg>