<?xml version="1.0" standalone="no"?><!-- Generator: Gravit.io --><svg xmlns="http://www.w3.org/2000/svg" xmlns:xlink="http://www.w3.org/1999/xlink" style="isolation:isolate" viewBox="-1 -1 222 42"><path d=" M 14.504847935267858 24.767088607594935 Q 14.313214983258929 24.944303797468354 14.078029087611608 25.18354430379747 Q 13.842843191964286 25.422784810126583 13.590236118861608 25.67088607594937 Q 13.337629045758929 25.91898734177215 13.058890206473215 26.149367088607594 Q 12.7801513671875 26.37974683544304 12.518833705357144 26.539240506329115 L 0.4808000837053572 22.21518987341772 L -0.1289411272321428 21.417721518987342 Q -0.1289411272321428 21.36455696202532 -0.1115199497767857 21.346835443037975 Q -0.1115199497767857 21.31139240506329 -0.1028093610491071 21.30253164556962 Q -0.09409877232142849 21.29367088607595 -0.09409877232142849 21.258227848101267 L -0.0592564174107143 21.151898734177216 L -0.0244140625 20.99240506329114 L 0.0452706473214286 20.744303797468355 L 0.1149553571428572 20.549367088607596 L 0.1846400669642858 20.28354430379747 L 0.2543247767857144 20.070886075949367 Q 0.2717459542410714 19.98227848101266 0.3414306640625 19.80506329113924 Q 0.3414306640625 19.769620253164558 0.3588518415178572 19.751898734177214 L 0.3936941964285714 19.627848101265823 Q 0.4111153738839286 19.610126582278482 0.4111153738839286 19.5746835443038 L 0.4982212611607144 19.344303797468356 L 0.5853271484375 19.131645569620254 L 13.895106724330358 14.29367088607595 L 14.504847935267858 14.913924050632911 Q 14.452584402901786 15.10886075949367 14.365478515625 15.445569620253163 Q 14.278372628348215 15.782278481012657 14.173845563616071 16.154430379746834 Q 14.069318498883929 16.526582278481012 13.973502022879465 16.863291139240506 Q 13.877685546875 17.2 13.825422014508929 17.359493670886078 L 4.801252092633929 20.655696202531647 L 14.034476143973215 23.951898734177217 L 14.504847935267858 24.767088607594935 Z  M 20.549996512276785 30.721518987341774 L 20.549996512276785 29.250632911392405 Q 21.351370675223215 29.09113924050633 21.87400599888393 28.91392405063291 Q 22.396641322544642 28.736708860759496 22.692801339285715 28.56835443037975 Q 22.98896135602679 28.400000000000002 23.11090959821429 28.249367088607595 Q 23.23285784040179 28.098734177215192 23.23285784040179 27.974683544303797 L 23.23285784040179 10.69620253164557 L 19.06919642857143 10.69620253164557 Q 18.807878766741073 10.69620253164557 18.563982282366073 10.917721518987342 Q 18.320085797991073 11.139240506329115 18.067478724888392 11.608860759493671 Q 17.814871651785715 12.078481012658228 17.510001046316965 12.822784810126583 Q 17.205130440848215 13.567088607594936 16.821864536830358 14.594936708860759 L 15.375906808035715 14.081012658227849 Q 15.41074916294643 13.567088607594936 15.497855050223215 12.7873417721519 Q 15.5849609375 12.00759493670886 15.698198590959823 11.183544303797468 Q 15.811436244419642 10.359493670886076 15.924673897879465 9.606329113924051 Q 16.037911551339285 8.853164556962026 16.125017438616073 8.39240506329114 L 35.11410086495536 8.39240506329114 L 35.810947963169646 9.012658227848101 Q 35.793526785714285 9.473417721518988 35.72384207589286 10.164556962025317 Q 35.65415736607143 10.855696202531647 35.549630301339285 11.608860759493671 Q 35.445103236607146 12.362025316455696 35.33186558314732 13.115189873417721 Q 35.2186279296875 13.868354430379748 35.11410086495536 14.417721518987342 L 33.63330078125 14.417721518987342 Q 33.45908900669643 13.60253164556962 33.354561941964285 12.91139240506329 Q 33.250034877232146 12.220253164556961 33.110665457589285 11.732911392405063 Q 32.97129603794643 11.245569620253164 32.762241908482146 10.970886075949368 Q 32.55318777901786 10.69620253164557 32.18734305245536 10.69620253164557 L 28.11078752790179 10.69620253164557 L 28.11078752790179 27.974683544303797 Q 28.11078752790179 28.08101265822785 28.23273577008929 28.231645569620255 Q 28.35468401227679 28.38227848101266 28.650844029017858 28.559493670886077 Q 28.94700404575893 28.736708860759496 29.469639369419642 28.91392405063291 Q 29.992274693080358 29.09113924050633 30.79364885602679 29.250632911392405 L 30.79364885602679 30.721518987341774 L 20.549996512276785 30.721518987341774 Z  M 43.94663783482143 27.88607594936709 Q 44.207955496651785 27.88607594936709 44.521536690848215 27.832911392405062 Q 44.835117885044646 27.77974683544304 45.22709437779018 27.59367088607595 Q 45.619070870535715 27.40759493670886 46.12428501674107 27.070886075949367 Q 46.62949916294643 26.734177215189874 47.274082728794646 26.167088607594938 L 47.274082728794646 22.463291139240507 Q 46.350760323660715 22.622784810126582 45.71488734654018 22.764556962025317 Q 45.079014369419646 22.906329113924052 44.643484933035715 23.056962025316455 Q 44.207955496651785 23.207594936708862 43.920506068638396 23.38481012658228 Q 43.633056640625 23.562025316455696 43.424002511160715 23.774683544303798 Q 42.97105189732143 24.235443037974683 42.692313058035715 24.731645569620255 Q 42.41357421875 25.227848101265824 42.41357421875 25.954430379746835 Q 42.41357421875 26.52151898734177 42.570364815848215 26.89367088607595 Q 42.72715541294643 27.265822784810126 42.95363071986607 27.4873417721519 Q 43.180106026785715 27.70886075949367 43.45013427734375 27.79746835443038 Q 43.720162527901785 27.88607594936709 43.94663783482143 27.88607594936709 Z  M 54.643240792410715 28.559493670886077 Q 53.911551339285715 29.07341772151899 53.066624232700896 29.560759493670886 Q 52.22169712611608 30.048101265822787 51.42903355189733 30.420253164556964 Q 50.63636997767858 30.792405063291138 49.99178641183036 31.02278481012658 Q 49.347202845982146 31.253164556962027 48.998779296875 31.253164556962027 Q 48.33677455357143 31.253164556962027 47.866402762276785 30.517721518987344 Q 47.396030970982146 29.782278481012657 47.29150390625 28.50632911392405 Q 46.50755092075893 29.303797468354432 45.71488734654018 29.835443037974684 Q 44.92222377232143 30.367088607594937 44.18182373046875 30.68607594936709 Q 43.44142368861607 31.005063291139244 42.761997767857146 31.129113924050635 Q 42.082571847098215 31.253164556962027 41.525094168526785 31.253164556962027 Q 40.75856236049107 31.253164556962027 40.03558349609375 30.9873417721519 Q 39.31260463169643 30.721518987341774 38.737705775669646 30.189873417721518 Q 38.16280691964286 29.658227848101266 37.814383370535715 28.878481012658227 Q 37.46595982142857 28.098734177215192 37.46595982142857 27.070886075949367 Q 37.46595982142857 25.91898734177215 37.884068080357146 25.09493670886076 Q 38.302176339285715 24.270886075949367 38.94675990513393 23.615189873417723 Q 39.3648681640625 23.189873417721518 39.91363525390625 22.79113924050633 Q 40.46240234375 22.39240506329114 41.38572474888393 22.020253164556962 Q 42.30904715401786 21.648101265822785 43.720162527901785 21.29367088607595 Q 45.131277901785715 20.939240506329114 47.274082728794646 20.60253164556962 L 47.274082728794646 18.635443037974685 Q 47.274082728794646 18.10379746835443 47.17826625279018 17.651898734177216 Q 47.082449776785715 17.2 46.847263881138396 16.88101265822785 Q 46.61207798549108 16.562025316455696 46.21139090401786 16.37594936708861 Q 45.810703822544646 16.189873417721518 45.2183837890625 16.189873417721518 Q 44.8525390625 16.189873417721518 44.47798374720982 16.340506329113925 Q 44.103428431919646 16.491139240506328 43.81597900390625 16.774683544303798 Q 43.52852957589286 17.058227848101268 43.363028390066965 17.474683544303797 Q 43.19752720424107 17.89113924050633 43.249790736607146 18.422784810126583 Q 43.2672119140625 18.529113924050634 42.936209542410715 18.69746835443038 Q 42.60520717075893 18.865822784810128 42.091282435825896 19.051898734177215 Q 41.57735770089286 19.237974683544305 40.95890590122768 19.41518987341772 Q 40.3404541015625 19.59240506329114 39.774265834263396 19.725316455696202 Q 39.208077566964285 19.858227848101265 38.77254813058036 19.929113924050633 Q 38.33701869419643 20 38.19764927455357 19.964556962025316 L 37.779541015625 18.91898734177215 Q 38.21507045200893 17.80253164556962 39.13839285714286 16.854430379746837 Q 40.061715262276785 15.906329113924052 41.3160400390625 15.206329113924053 Q 42.570364815848215 14.506329113924052 44.05987548828125 14.10759493670886 Q 45.549386160714285 13.708860759493671 47.11729213169643 13.708860759493671 Q 48.3890380859375 13.708860759493671 49.31236049107143 14.054430379746835 Q 50.23568289620536 14.4 50.8280029296875 14.99367088607595 Q 51.420322963169646 15.587341772151898 51.69906180245536 16.39367088607595 Q 51.97780064174108 17.2 51.97780064174108 18.10379746835443 L 51.97780064174108 26.149367088607594 Q 51.97780064174108 26.89367088607595 52.16943359375 27.212658227848102 Q 52.36106654575893 27.531645569620252 52.67464773995536 27.531645569620252 Q 52.79659598214286 27.531645569620252 52.91854422433036 27.513924050632912 Q 53.04049246651786 27.49620253164557 53.21470424107143 27.443037974683545 Q 53.388916015625 27.38987341772152 53.62410191127233 27.292405063291138 Q 53.859287806919646 27.19493670886076 54.207711356026785 27.053164556962027 L 54.643240792410715 28.559493670886077 Z  M 66.21090262276786 20.088607594936708 Q 66.21090262276786 19.22025316455696 66.00184849330357 18.440506329113923 Q 65.79279436383929 17.660759493670888 65.39210728236607 17.08481012658228 Q 64.99142020089286 16.508860759493672 64.39038957868304 16.172151898734178 Q 63.78935895647322 15.835443037974684 63.00540597098214 15.835443037974684 Q 62.569876534598215 15.835443037974684 62.151768275669646 16.030379746835443 Q 61.73366001674108 16.225316455696202 61.39394705636161 16.62405063291139 Q 61.054234095982146 17.022784810126584 60.84517996651786 17.625316455696204 Q 60.63612583705358 18.227848101265824 60.63612583705358 19.043037974683546 Q 60.63612583705358 19.929113924050633 60.81904820033483 20.7 Q 61.00197056361608 21.470886075949366 61.39394705636161 22.037974683544306 Q 61.785923549107146 22.605063291139242 62.395664760044646 22.941772151898736 Q 63.00540597098214 23.27848101265823 63.84162248883929 23.27848101265823 Q 64.34683663504464 23.27848101265823 64.78236607142857 23.08354430379747 Q 65.2178955078125 22.88860759493671 65.53147670200893 22.49873417721519 Q 65.84505789620536 22.10886075949367 66.02798025948661 21.50632911392405 Q 66.21090262276786 20.90379746835443 66.21090262276786 20.088607594936708 Z  M 64.608154296875 31.67848101265823 Q 62.90087890625 31.448101265822785 61.48976353236608 31.093670886075948 Q 60.810337611607146 31.607594936708864 60.435782296316965 32.02405063291139 Q 60.061226981026785 32.44050632911392 59.86959402901786 32.768354430379745 Q 59.67796107700893 33.096202531645574 59.634408133370535 33.379746835443036 Q 59.590855189732146 33.663291139240506 59.590855189732146 33.91139240506329 Q 59.590855189732146 34.460759493670885 59.99154227120536 34.95696202531646 Q 60.39222935267858 35.45316455696203 61.115208217075896 35.834177215189875 Q 61.838187081473215 36.21518987341772 62.83990478515625 36.436708860759495 Q 63.84162248883929 36.65822784810127 65.02626255580357 36.65822784810127 Q 66.00184849330357 36.65822784810127 66.68998500279018 36.41898734177215 Q 67.37812151227679 36.17974683544304 67.81365094866072 35.78101265822785 Q 68.24918038504464 35.38227848101266 68.44952392578125 34.87721518987342 Q 68.64986746651786 34.37215189873418 68.64986746651786 33.858227848101265 Q 68.64986746651786 33.574683544303795 68.510498046875 33.26455696202532 Q 68.37112862723214 32.95443037974684 67.94430977957589 32.6620253164557 Q 67.51749093191964 32.369620253164555 66.72482735770089 32.1126582278481 Q 65.93216378348214 31.855696202531647 64.608154296875 31.67848101265823 Z  M 70.74040876116072 19.362025316455696 Q 70.74040876116072 20.726582278481015 70.15679931640625 21.851898734177215 Q 69.57318987165179 22.97721518987342 68.57147216796875 23.78354430379747 Q 67.56975446428572 24.58987341772152 66.23703438895089 25.041772151898734 Q 64.90431431361607 25.49367088607595 63.40609305245536 25.49367088607595 L 63.19703892299107 25.49367088607595 Q 62.58729771205358 26.09620253164557 62.447928292410715 26.441772151898736 Q 62.30855887276786 26.787341772151898 62.30855887276786 26.89367088607595 Q 62.30855887276786 27.035443037974684 62.386954171316965 27.168354430379747 Q 62.46534946986608 27.30126582278481 62.83119419642858 27.443037974683545 Q 63.19703892299107 27.58481012658228 63.95486014229911 27.735443037974683 Q 64.71268136160714 27.88607594936709 66.071533203125 28.06329113924051 Q 68.16207449776786 28.346835443037975 69.53834751674107 28.71012658227848 Q 70.91462053571429 29.07341772151899 71.72470528738839 29.59620253164557 Q 72.5347900390625 30.11898734177215 72.85708182198661 30.827848101265822 Q 73.17937360491072 31.536708860759497 73.17937360491072 32.49367088607595 Q 73.17937360491072 33.29113924050633 72.79610770089286 34.106329113924055 Q 72.412841796875 34.92151898734177 71.75083705357143 35.69240506329114 Q 71.08883231026786 36.46329113924051 70.18293108258929 37.13670886075949 Q 69.27702985491072 37.81012658227848 68.22304861886161 38.31518987341772 Q 67.1690673828125 38.82025316455696 66.01926967075893 39.1126582278481 Q 64.86947195870536 39.40506329113924 63.71967424665179 39.40506329113924 Q 62.7789306640625 39.40506329113924 61.75979178292411 39.28987341772152 Q 60.740652901785715 39.1746835443038 59.756356375558035 38.926582278481014 Q 58.77205984933036 38.67848101265823 57.89229038783483 38.29746835443038 Q 57.012520926339285 37.91645569620253 56.341805594308035 37.37594936708861 Q 55.671090262276785 36.835443037974684 55.27911376953125 36.153164556962025 Q 54.887137276785715 35.470886075949366 54.887137276785715 34.60253164556962 Q 54.887137276785715 34.177215189873415 55.078770228794646 33.734177215189874 Q 55.27040318080358 33.29113924050633 55.749485560825896 32.78607594936709 Q 56.228567940848215 32.28101265822785 57.05607386997768 31.696202531645568 Q 57.883579799107146 31.11139240506329 59.155325753348215 30.38481012658228 Q 58.19716099330358 29.99493670886076 57.691946847098215 29.569620253164558 Q 57.18673270089286 29.144303797468353 57.18673270089286 28.718987341772152 Q 57.18673270089286 28.29367088607595 57.988106863839285 27.327848101265822 Q 58.789481026785715 26.362025316455696 60.566441127232146 25.121518987341773 Q 59.573434012276785 24.837974683544303 58.74592808314733 24.368354430379746 Q 57.91842215401786 23.89873417721519 57.334812709263396 23.251898734177214 Q 56.75120326450893 22.605063291139242 56.42891148158483 21.79873417721519 Q 56.106619698660715 20.99240506329114 56.106619698660715 20.053164556962027 Q 56.106619698660715 18.759493670886076 56.75120326450893 17.59873417721519 Q 57.395786830357146 16.437974683544304 58.475899832589285 15.578481012658226 Q 59.55601283482143 14.718987341772152 60.993259974888396 14.213924050632912 Q 62.43050711495536 13.708860759493671 64.03325544084822 13.708860759493671 Q 65.30500139508929 13.708860759493671 66.39382498604911 14.054430379746835 Q 67.48264857700893 14.4 68.35370744977679 15.002531645569622 Q 69.05055454799107 14.896202531645569 69.72998046875 14.727848101265822 Q 70.40940638950893 14.559493670886075 71.01914760044643 14.373417721518988 Q 71.62888881138393 14.1873417721519 72.13410295758929 14.018987341772153 Q 72.63931710379464 13.850632911392406 72.98774065290179 13.708860759493671 L 73.5103759765625 14.417721518987342 Q 73.47553362165179 14.594936708860759 73.36229596819197 14.869620253164557 Q 73.24905831473214 15.144303797468353 73.10968889508929 15.445569620253163 Q 72.97031947544643 15.746835443037973 72.81352887834822 16.039240506329115 Q 72.65673828125 16.331645569620253 72.51736886160714 16.544303797468356 Q 71.94247000558036 16.632911392405063 71.35014997209822 16.712658227848102 Q 70.75782993861607 16.792405063291138 70.04356166294643 16.827848101265822 Q 70.74040876116072 17.99746835443038 70.74040876116072 19.362025316455696 Z  M 87.60410853794643 25.706329113924053 Q 87.60410853794643 26.964556962025316 87.22084263392857 27.859493670886078 Q 86.83757672991072 28.754430379746836 86.22783551897322 29.3746835443038 Q 85.61809430803572 29.99493670886076 84.83414132254464 30.367088607594937 Q 84.05018833705357 30.739240506329114 83.24881417410714 30.934177215189873 Q 82.44744001116072 31.129113924050635 81.69832938058036 31.19113924050633 Q 80.94921875 31.253164556962027 80.39174107142857 31.253164556962027 Q 79.78199986049107 31.253164556962027 79.08515276227679 31.173417721518987 Q 78.3883056640625 31.093670886075948 77.66532679966518 30.934177215189873 Q 76.94234793526786 30.774683544303798 76.25421142578125 30.526582278481012 Q 75.56607491629464 30.27848101265823 74.99117606026786 29.959493670886076 Q 74.86922781808036 29.906329113924052 74.80825369698661 29.3126582278481 Q 74.74727957589286 28.718987341772152 74.74727957589286 27.88607594936709 Q 74.74727957589286 27.053164556962027 74.83438546316964 26.122784810126582 Q 74.92149135044643 25.19240506329114 75.11312430245536 24.465822784810126 L 76.73329380580357 24.660759493670888 Q 76.95976911272322 25.67088607594937 77.37787737165179 26.468354430379748 Q 77.79598563058036 27.265822784810126 78.34475272042411 27.815189873417722 Q 78.89351981026786 28.36455696202532 79.54681396484375 28.656962025316457 Q 80.20010811941964 28.949367088607595 80.91437639508929 28.949367088607595 Q 82.168701171875 28.949367088607595 82.70875767299107 28.58607594936709 Q 83.24881417410714 28.222784810126583 83.24881417410714 27.230379746835442 Q 83.24881417410714 26.52151898734177 82.900390625 25.945569620253163 Q 82.55196707589286 25.36962025316456 81.97706821986607 24.88227848101266 Q 81.40216936383929 24.39493670886076 80.65305873325893 23.969620253164557 Q 79.90394810267857 23.544303797468356 79.10257393973214 23.11898734177215 Q 78.37088448660714 22.746835443037977 77.63919503348214 22.28607594936709 Q 76.90750558035714 21.825316455696203 76.30647495814732 21.267088607594935 Q 75.7054443359375 20.70886075949367 75.33088902064732 20.026582278481012 Q 74.95633370535714 19.344303797468356 74.95633370535714 18.49367088607595 Q 74.95633370535714 17.39493670886076 75.51381138392857 16.508860759493672 Q 76.0712890625 15.622784810126582 76.99461146763393 15.002531645569622 Q 77.91793387276786 14.382278481012658 79.09386335100447 14.045569620253165 Q 80.26979282924107 13.708860759493671 81.52411760602679 13.708860759493671 Q 82.32549176897322 13.708860759493671 83.12686593191964 13.80632911392405 Q 83.92824009486607 13.90379746835443 84.64250837053572 14.081012658227849 Q 85.35677664620536 14.258227848101265 85.95780726841518 14.506329113924052 Q 86.558837890625 14.754430379746836 86.97694614955357 15.073417721518986 Q 87.08147321428572 15.162025316455697 87.02920968191964 15.711392405063293 Q 86.97694614955357 16.260759493670886 86.81144496372768 16.951898734177217 Q 86.64594377790179 17.643037974683544 86.41075788225447 18.31645569620253 Q 86.17557198660714 18.98987341772152 85.93167550223214 19.326582278481013 L 84.55540248325893 19.184810126582278 Q 84.25924246651786 17.518987341772153 83.46657889229911 16.588607594936708 Q 82.67391531808036 15.658227848101266 81.41959054129464 15.658227848101266 Q 80.39174107142857 15.658227848101266 79.8516845703125 16.083544303797467 Q 79.31162806919643 16.508860759493672 79.31162806919643 17.253164556962027 Q 79.31162806919643 17.820253164556963 79.57294573102679 18.254430379746836 Q 79.83426339285714 18.68860759493671 80.3394775390625 19.078481012658226 Q 80.84469168526786 19.468354430379748 81.59380231584822 19.87594936708861 Q 82.34291294642857 20.28354430379747 83.33592006138393 20.815189873417722 Q 84.08503069196429 21.20506329113924 84.8515625 21.648101265822785 Q 85.61809430803572 22.09113924050633 86.22783551897322 22.667088607594938 Q 86.83757672991072 23.243037974683546 87.22084263392857 23.97848101265823 Q 87.60410853794643 24.71392405063291 87.60410853794643 25.706329113924053 Z  M 110.02516392299107 30.721518987341774 L 110.02516392299107 29.250632911392405 Q 110.65232631138393 29.09113924050633 111.02688162667411 28.940506329113923 Q 111.40143694196429 28.78987341772152 111.6017804827009 28.656962025316457 Q 111.8021240234375 28.524050632911393 111.86309814453125 28.40886075949367 Q 111.924072265625 28.29367088607595 111.924072265625 28.169620253164556 L 111.924072265625 20.212658227848102 Q 111.924072265625 19.131645569620254 111.81083461216518 18.502531645569622 Q 111.69759695870536 17.873417721518987 111.4798322405134 17.554430379746837 Q 111.26206752232143 17.235443037974683 110.92235456194197 17.155696202531647 Q 110.5826416015625 17.075949367088608 110.12969098772322 17.075949367088608 Q 109.50252859933036 17.075949367088608 108.58791678292411 17.38607594936709 Q 107.67330496651786 17.69620253164557 106.61061314174107 18.440506329113923 L 106.61061314174107 28.169620253164556 Q 106.61061314174107 28.29367088607595 106.6802978515625 28.40886075949367 Q 106.74998256138393 28.524050632911393 106.97645786830357 28.648101265822785 Q 107.20293317522322 28.772151898734176 107.62104143415179 28.922784810126583 Q 108.03914969308036 29.07341772151899 108.71857561383929 29.250632911392405 L 108.71857561383929 30.721518987341774 L 100.00798688616072 30.721518987341774 L 100.00798688616072 29.250632911392405 Q 100.63514927455357 29.09113924050633 101.00970458984375 28.940506329113923 Q 101.38425990513393 28.78987341772152 101.58460344587054 28.656962025316457 Q 101.78494698660715 28.524050632911393 101.8459211077009 28.40886075949367 Q 101.90689522879465 28.29367088607595 101.90689522879465 28.169620253164556 L 101.90689522879465 20.212658227848102 Q 101.90689522879465 19.131645569620254 101.82849993024554 18.502531645569622 Q 101.75010463169643 17.873417721518987 101.56718226841518 17.554430379746837 Q 101.38425990513393 17.235443037974683 101.0706787109375 17.155696202531647 Q 100.75709751674107 17.075949367088608 100.28672572544643 17.075949367088608 Q 99.62472098214286 17.075949367088608 98.71881975446429 17.368354430379746 Q 97.81291852678572 17.660759493670888 96.59343610491072 18.440506329113923 L 96.59343610491072 28.169620253164556 Q 96.59343610491072 28.435443037974686 97.07251848493304 28.718987341772152 Q 97.55160086495536 29.002531645569622 98.68397739955357 29.250632911392405 L 98.68397739955357 30.721518987341774 L 89.62496512276786 30.721518987341774 L 89.62496512276786 29.250632911392405 Q 90.77476283482143 28.949367088607595 91.33224051339286 28.71012658227848 Q 91.88971819196429 28.470886075949366 91.88971819196429 28.169620253164556 L 91.88971819196429 18.653164556962025 Q 91.88971819196429 17.944303797468354 91.85487583705357 17.536708860759493 Q 91.82003348214286 17.129113924050632 91.60226876395089 16.90759493670886 Q 91.38450404575893 16.68607594936709 90.92284284319197 16.57974683544304 Q 90.461181640625 16.473417721518988 89.62496512276786 16.367088607594937 L 89.62496512276786 14.949367088607595 Q 90.61797223772322 14.843037974683545 91.41063581194197 14.718987341772152 Q 92.20329938616072 14.594936708860759 92.900146484375 14.453164556962026 Q 93.59699358258929 14.311392405063291 94.2415771484375 14.125316455696202 Q 94.88616071428572 13.939240506329114 95.54816545758929 13.708860759493671 L 96.33211844308036 14.506329113924052 L 96.52375139508929 16.083544303797467 Q 97.56902204241072 15.303797468354432 98.40523856026786 14.834177215189873 Q 99.241455078125 14.364556962025317 99.95572335379465 14.116455696202532 Q 100.66999162946429 13.868354430379748 101.30586460658482 13.788607594936709 Q 101.94173758370536 13.708860759493671 102.56889997209822 13.708860759493671 Q 103.40511648995536 13.708860759493671 104.02356828962054 13.921518987341772 Q 104.64202008928572 14.134177215189874 105.07754952566965 14.453164556962026 Q 105.51307896205357 14.772151898734178 105.78310721261161 15.162025316455697 Q 106.05313546316965 15.551898734177215 106.1925048828125 15.924050632911392 L 106.26218959263393 16.11898734177215 Q 107.32488141741072 15.339240506329116 108.17851911272322 14.869620253164557 Q 109.03215680803572 14.4 109.75513567243304 14.143037974683544 Q 110.47811453683036 13.886075949367088 111.12269810267857 13.79746835443038 Q 111.76728166852679 13.708860759493671 112.411865234375 13.708860759493671 Q 113.24808175223215 13.708860759493671 114.00590297154018 13.956962025316455 Q 114.76372419084822 14.205063291139242 115.34733363560268 14.763291139240506 Q 115.93094308035715 15.321518987341772 116.27936662946429 16.234177215189874 Q 116.62779017857143 17.146835443037975 116.62779017857143 18.475949367088607 L 116.62779017857143 28.169620253164556 Q 116.62779017857143 28.417721518987342 117.1678466796875 28.656962025316457 Q 117.70790318080357 28.89620253164557 119.08417619977679 29.250632911392405 L 119.08417619977679 30.721518987341774 L 110.02516392299107 30.721518987341774 Z  M 120.46044921875 30.721518987341774 L 120.46044921875 29.250632911392405 Q 121.64508928571429 29.002531645569622 122.18514578683036 28.71012658227848 Q 122.72520228794643 28.417721518987342 122.72520228794643 28.169620253164556 L 122.72520228794643 19.37974683544304 Q 122.72520228794643 18.475949367088607 122.71649169921875 17.917721518987342 Q 122.70778111049107 17.359493670886078 122.51614815848215 17.049367088607596 Q 122.32451520647322 16.739240506329114 121.85414341517857 16.59746835443038 Q 121.38377162388393 16.455696202531644 120.46044921875 16.367088607594937 L 120.46044921875 14.949367088607595 Q 122.09803989955357 14.736708860759494 123.47431291852679 14.444303797468354 Q 124.8505859375 14.151898734177216 126.13975306919643 13.708860759493671 L 127.42892020089286 13.708860759493671 L 127.42892020089286 28.169620253164556 Q 127.42892020089286 28.38227848101266 127.92542375837053 28.69240506329114 Q 128.42192731584822 29.002531645569622 129.69367327008928 29.250632911392405 L 129.69367327008928 30.721518987341774 L 120.46044921875 30.721518987341774 Z  M 128.12576729910714 8.374683544303798 Q 128.12576729910714 9.012658227848101 127.88187081473214 9.526582278481014 Q 127.63797433035714 10.040506329113924 127.20244489397322 10.40379746835443 Q 126.76691545758929 10.767088607594937 126.18330601283482 10.962025316455696 Q 125.59969656808036 11.156962025316457 124.90284946986607 11.156962025316457 Q 124.38021414620536 11.156962025316457 123.90113176618304 11.041772151898735 Q 123.42204938616072 10.926582278481012 123.03878348214286 10.669620253164558 Q 122.655517578125 10.412658227848102 122.42904227120536 10.022784810126582 Q 122.20256696428572 9.632911392405063 122.20256696428572 9.10126582278481 Q 122.20256696428572 8.463291139240507 122.4551740373884 7.949367088607595 Q 122.70778111049107 7.435443037974684 123.143310546875 7.0810126582278485 Q 123.57883998325893 6.726582278481013 124.1624494280134 6.531645569620253 Q 124.74605887276786 6.336708860759494 125.42548479352679 6.336708860759494 Q 125.93069893973215 6.336708860759494 126.41849190848215 6.451898734177215 Q 126.90628487723215 6.567088607594937 127.28084019252233 6.815189873417721 Q 127.6553955078125 7.063291139240507 127.89058140345983 7.444303797468354 Q 128.12576729910714 7.825316455696203 128.12576729910714 8.374683544303798 Z  M 143.64803641183036 27.7620253164557 Q 141.13938685825894 29.5873417721519 139.51921735491072 30.420253164556964 Q 137.8990478515625 31.253164556962027 136.97572544642858 31.253164556962027 Q 136.17435128348214 31.253164556962027 135.4687935965402 30.943037974683545 Q 134.76323590959822 30.632911392405063 134.23188999720983 30.00379746835443 Q 133.70054408482144 29.3746835443038 133.3956734793527 28.444303797468354 Q 133.09080287388394 27.513924050632912 133.09080287388394 26.27341772151899 L 133.09080287388394 16.632911392405063 L 131.01768275669644 16.632911392405063 L 130.47762625558036 15.959493670886076 L 131.83647809709822 14.240506329113924 L 133.09080287388394 14.240506329113924 L 133.09080287388394 10.767088607594937 L 137.08025251116072 7.860759493670887 L 137.79452078683036 8.481012658227849 L 137.79452078683036 14.240506329113924 L 142.96861049107144 14.240506329113924 L 143.64803641183036 14.931645569620253 Q 143.49124581473214 15.250632911392405 143.25605991908483 15.59620253164557 Q 143.0208740234375 15.941772151898736 142.7769775390625 16.260759493670886 Q 142.5330810546875 16.57974683544304 142.2978951590402 16.845569620253166 Q 142.06270926339286 17.11139240506329 141.88849748883928 17.253164556962027 Q 141.679443359375 17.146835443037975 141.3571515764509 17.040506329113924 Q 141.03485979352678 16.934177215189873 140.65159388950894 16.836708860759494 Q 140.26832798549108 16.739240506329114 139.8502197265625 16.68607594936709 Q 139.43211146763394 16.632911392405063 139.04884556361608 16.632911392405063 L 137.79452078683036 16.632911392405063 L 137.79452078683036 24.572151898734177 Q 137.79452078683036 25.440506329113923 137.9077584402902 26.034177215189874 Q 138.02099609375 26.627848101265823 138.20391845703125 27 Q 138.3868408203125 27.372151898734177 138.6307373046875 27.540506329113924 Q 138.8746337890625 27.70886075949367 139.13595145089286 27.70886075949367 Q 139.44953264508928 27.70886075949367 139.78053501674108 27.646835443037975 Q 140.11153738839286 27.58481012658228 140.52964564732144 27.434177215189873 Q 140.94775390625 27.28354430379747 141.49652099609375 27.017721518987344 Q 142.0452880859375 26.751898734177217 142.79439871651786 26.326582278481013 L 143.64803641183036 27.7620253164557 Z  M 155.47701590401786 30.721518987341774 L 155.47701590401786 29.250632911392405 Q 156.73134068080358 28.91392405063291 157.23655482700894 28.66582278481013 Q 157.74176897321428 28.417721518987342 157.74176897321428 28.169620253164556 L 157.74176897321428 20.921518987341774 Q 157.74176897321428 19.840506329113925 157.63724190848214 19.131645569620254 Q 157.53271484375 18.422784810126583 157.30623953683036 18.00632911392405 Q 157.07976422991072 17.58987341772152 156.7226300920759 17.421518987341774 Q 156.36549595424108 17.253164556962027 155.86028180803572 17.253164556962027 Q 155.38991001674108 17.253164556962027 154.94566999162947 17.368354430379746 Q 154.50142996651786 17.48354430379747 154.01363699776786 17.6873417721519 Q 153.52584402901786 17.89113924050633 152.96836635044644 18.19240506329114 Q 152.410888671875 18.49367088607595 151.73146275111608 18.865822784810128 L 151.73146275111608 28.169620253164556 Q 151.73146275111608 28.435443037974686 152.2976510184152 28.718987341772152 Q 152.86383928571428 29.002531645569622 153.9962158203125 29.250632911392405 L 153.9962158203125 30.721518987341774 L 144.76299176897322 30.721518987341774 L 144.76299176897322 29.250632911392405 Q 145.91278948102678 28.949367088607595 146.47026715959822 28.71012658227848 Q 147.02774483816964 28.470886075949366 147.02774483816964 28.169620253164556 L 147.02774483816964 8.427848101265823 Q 147.02774483816964 7.6835443037974684 146.99290248325894 7.267088607594937 Q 146.95806012834822 6.850632911392405 146.74029541015625 6.620253164556962 Q 146.52253069196428 6.389873417721519 146.06086948939733 6.292405063291139 Q 145.59920828683036 6.19493670886076 144.76299176897322 6.088607594936709 L 144.76299176897322 4.670886075949367 Q 145.82568359375 4.529113924050633 146.66190011160714 4.387341772151899 Q 147.49811662946428 4.245569620253165 148.21238490513394 4.077215189873418 Q 148.92665318080358 3.9088607594936713 149.57123674665178 3.7139240506329116 Q 150.2158203125 3.518987341772152 150.91266741071428 3.2531645569620258 L 151.73146275111608 4.0329113924050635 L 151.73146275111608 16.29620253164557 Q 152.81157575334822 15.569620253164558 153.7610299246652 15.073417721518986 Q 154.71048409598214 14.577215189873417 155.56412179129464 14.275949367088607 Q 156.41775948660714 13.974683544303797 157.1668701171875 13.841772151898734 Q 157.91598074776786 13.708860759493671 158.59540666852678 13.708860759493671 Q 159.34451729910714 13.708860759493671 160.04136439732144 13.956962025316455 Q 160.73821149553572 14.205063291139242 161.2695574079241 14.763291139240506 Q 161.8009033203125 15.321518987341772 162.1231951032366 16.234177215189874 Q 162.44548688616072 17.146835443037975 162.44548688616072 18.475949367088607 L 162.44548688616072 28.169620253164556 Q 162.44548688616072 28.29367088607595 162.5413033621652 28.40886075949367 Q 162.63711983816964 28.524050632911393 162.88972691127233 28.648101265822785 Q 163.142333984375 28.772151898734176 163.5865740094866 28.922784810126583 Q 164.03081403459822 29.07341772151899 164.71023995535714 29.250632911392405 L 164.71023995535714 30.721518987341774 L 155.47701590401786 30.721518987341774 Z  M 179.15239606584822 25.706329113924053 Q 179.15239606584822 26.964556962025316 178.76913016183036 27.859493670886078 Q 178.3858642578125 28.754430379746836 177.776123046875 29.3746835443038 Q 177.1663818359375 29.99493670886076 176.38242885044644 30.367088607594937 Q 175.59847586495536 30.739240506329114 174.79710170200894 30.934177215189873 Q 173.9957275390625 31.129113924050635 173.24661690848214 31.19113924050633 Q 172.49750627790178 31.253164556962027 171.94002859933036 31.253164556962027 Q 171.33028738839286 31.253164556962027 170.63344029017858 31.173417721518987 Q 169.93659319196428 31.093670886075948 169.21361432756697 30.934177215189873 Q 168.49063546316964 30.774683544303798 167.80249895368303 30.526582278481012 Q 167.11436244419644 30.27848101265823 166.53946358816964 29.959493670886076 Q 166.41751534598214 29.906329113924052 166.3565412248884 29.3126582278481 Q 166.29556710379464 28.718987341772152 166.29556710379464 27.88607594936709 Q 166.29556710379464 27.053164556962027 166.38267299107144 26.122784810126582 Q 166.46977887834822 25.19240506329114 166.66141183035714 24.465822784810126 L 168.28158133370536 24.660759493670888 Q 168.508056640625 25.67088607594937 168.92616489955358 26.468354430379748 Q 169.34427315848214 27.265822784810126 169.8930402483259 27.815189873417722 Q 170.44180733816964 28.36455696202532 171.09510149274553 28.656962025316457 Q 171.74839564732144 28.949367088607595 172.46266392299108 28.949367088607595 Q 173.71698869977678 28.949367088607595 174.25704520089286 28.58607594936709 Q 174.79710170200894 28.222784810126583 174.79710170200894 27.230379746835442 Q 174.79710170200894 26.52151898734177 174.44867815290178 25.945569620253163 Q 174.10025460379464 25.36962025316456 173.52535574776786 24.88227848101266 Q 172.95045689174108 24.39493670886076 172.20134626116072 23.969620253164557 Q 171.45223563058036 23.544303797468356 170.65086146763394 23.11898734177215 Q 169.91917201450894 22.746835443037977 169.18748256138394 22.28607594936709 Q 168.45579310825894 21.825316455696203 167.8547624860491 21.267088607594935 Q 167.25373186383928 20.70886075949367 166.8791765485491 20.026582278481012 Q 166.50462123325894 19.344303797468356 166.50462123325894 18.49367088607595 Q 166.50462123325894 17.39493670886076 167.06209891183036 16.508860759493672 Q 167.61957659040178 15.622784810126582 168.54289899553572 15.002531645569622 Q 169.46622140066964 14.382278481012658 170.64215087890625 14.045569620253165 Q 171.81808035714286 13.708860759493671 173.07240513392858 13.708860759493671 Q 173.873779296875 13.708860759493671 174.67515345982144 13.80632911392405 Q 175.47652762276786 13.90379746835443 176.1907958984375 14.081012658227849 Q 176.90506417410714 14.258227848101265 177.50609479631697 14.506329113924052 Q 178.10712541852678 14.754430379746836 178.52523367745536 15.073417721518986 Q 178.6297607421875 15.162025316455697 178.57749720982144 15.711392405063293 Q 178.52523367745536 16.260759493670886 178.35973249162947 16.951898734177217 Q 178.19423130580358 17.643037974683544 177.95904541015625 18.31645569620253 Q 177.72385951450894 18.98987341772152 177.47996303013394 19.326582278481013 L 176.10369001116072 19.184810126582278 Q 175.80752999441964 17.518987341772153 175.0148664202009 16.588607594936708 Q 174.22220284598214 15.658227848101266 172.96787806919644 15.658227848101266 Q 171.94002859933036 15.658227848101266 171.39997209821428 16.083544303797467 Q 170.85991559709822 16.508860759493672 170.85991559709822 17.253164556962027 Q 170.85991559709822 17.820253164556963 171.12123325892858 18.254430379746836 Q 171.38255092075894 18.68860759493671 171.88776506696428 19.078481012658226 Q 172.39297921316964 19.468354430379748 173.14208984375 19.87594936708861 Q 173.89120047433036 20.28354430379747 174.88420758928572 20.815189873417722 Q 175.63331821986608 21.20506329113924 176.39985002790178 21.648101265822785 Q 177.1663818359375 22.09113924050633 177.776123046875 22.667088607594938 Q 178.3858642578125 23.243037974683546 178.76913016183036 23.97848101265823 Q 179.15239606584822 24.71392405063291 179.15239606584822 25.706329113924053 Z  M 184.77943638392858 35.57721518987342 Q 184.605224609375 35.70126582278481 184.18711635044644 35.860759493670884 Q 183.76900809151786 36.02025316455696 183.29863630022322 36.17088607594937 Q 182.82826450892858 36.321518987341776 182.38402448381697 36.45443037974684 Q 181.93978445870536 36.5873417721519 181.73073032924108 36.65822784810127 L 180.91193498883928 36.037974683544306 L 193.12418038504464 3.4126582278481017 Q 193.3506556919643 3.2531645569620258 193.7600533621652 3.10253164556962 Q 194.16945103236608 2.9518987341772154 194.6136910574777 2.810126582278481 Q 195.0579310825893 2.668354430379747 195.4673287527902 2.5531645569620256 Q 195.87672642299108 2.437974683544304 196.12062290736608 2.367088607594937 L 196.93941824776786 2.9341772151898735 L 184.77943638392858 35.57721518987342 Z  M 212.96690150669644 19.41518987341772 Q 212.84495326450894 19.929113924050633 212.63589913504464 20.58481012658228 Q 212.42684500558036 21.240506329113924 212.2526332310268 21.701265822784812 L 198.94285365513394 26.539240506329115 L 198.33311244419644 25.91898734177215 Q 198.3853759765625 25.741772151898736 198.4724818638393 25.39620253164557 Q 198.55958775111608 25.050632911392405 198.66411481584822 24.678481012658228 Q 198.76864188058036 24.30632911392405 198.86445835658483 23.969620253164557 Q 198.9602748325893 23.632911392405063 199.01253836495536 23.473417721518988 L 208.03670828683036 20.19493670886076 L 198.80348423549108 16.88101265822785 L 198.33311244419644 16.065822784810127 Q 198.52474539620536 15.888607594936708 198.7599312918527 15.649367088607594 Q 198.9951171875 15.41012658227848 199.2477242606027 15.162025316455697 Q 199.50033133370536 14.913924050632911 199.77907017299108 14.683544303797468 Q 200.0578090122768 14.453164556962026 200.31912667410714 14.29367088607595 L 212.35716029575894 18.61772151898734 L 212.96690150669644 19.41518987341772 Z " fill-rule="evenodd" fill="rgb(51,26,102)" stroke-width="1" stroke="rgba(0,0,0,0)"/></svg>