<?xml version="1.0" standalone="no"?><!-- Generator: Gravit.io --><svg xmlns="http://www.w3.org/2000/svg" xmlns:xlink="http://www.w3.org/1999/xlink" style="isolation:isolate" viewBox="1.4499999999999993 0.4499999999999993 17.1 17.1"><path d=" M 10 0.4499999999999993 C 14.71875 0.4499999999999993 18.55 4.279999999999999 18.55 9 C 18.55 13.71875 14.71875 17.55 10 17.55 C 5.281249999999999 17.55 1.4499999999999993 13.71875 1.4499999999999993 9 C 1.4499999999999993 4.279999999999999 5.281249999999999 0.4499999999999993 10 0.4499999999999993 Z " fill-rule="evenodd" fill="rgb(248,113,23)" stroke-width="1" stroke="rgba(0,0,0,0)" stroke-linecap="butt"/><path d=" M 12.124326 4.649322 C 11.586974 4.772735999999999 11.119845999999999 5.15016 10.916799 5.6991119999999995 C 10.787911 6.047480999999999 10.791048 6.409514 10.890279 6.740340999999999 C 10.347444999999999 7.511581 8.407516 9.415719999999999 7.528002999999999 10.069968 C 6.825591999999999 10.056707999999999 6.1594999999999995 10.471129999999999 5.905523 11.157703 C 5.712765999999999 11.679027999999999 5.806513 12.231776 6.099037999999999 12.659478 L 6.500916999999999 11.572965 C 6.601171999999999 11.301672 6.903447999999999 11.162959 7.178508999999999 11.261935 L 7.979121999999999 11.550006999999999 C 8.254199999999999 11.648876999999999 8.394848 11.947000999999998 8.294488999999999 12.218276 L 7.8757019999999995 13.350677999999998 C 8.41296 13.227184999999999 8.880182 12.849829999999999 9.083226999999999 12.300888999999998 C 9.244513999999999 11.864848999999998 9.207683 11.405497999999998 9.020477 11.016049999999998 C 9.734437999999999 10.176300999999999 11.473605999999998 8.413364999999999 12.312304 7.924642999999998 C 13.071085 8.010422999999998 13.821387 7.5805279999999975 14.094394 6.842280999999998 C 14.287272999999999 6.320869999999998 14.193503999999999 5.768223999999998 13.900984 5.340522999999998 L 13.499105 6.427035999999999 C 13.398746 6.698312 13.096573999999999 6.837041999999999 12.821513 6.738064 L 12.020899 6.449991999999999 C 11.745734 6.350991999999999 11.605068 6.052981999999999 11.705428 5.781705999999999 L 12.124319999999999 4.649321 L 12.124326 4.649322 Z " fill="rgb(255,255,255)" stroke-width="1" stroke="rgba(0,0,0,0)" stroke-linecap="butt"/></svg>