<?xml version="1.0" standalone="no"?><!-- Generator: Gravit.io --><svg xmlns="http://www.w3.org/2000/svg" xmlns:xlink="http://www.w3.org/1999/xlink" style="isolation:isolate" viewBox="0.24999998726205175 0.425454936840689 19.50000002547589 17.14909012631862"><path d=" M 1.0995486454615817 16.32502955385274 C 3.970864401458642 11.356227684141075 6.842180097561759 6.38862393289384 9.713495793664872 1.419822242864007 C 9.794951558093329 1.2772746551142071 9.87401156474448 1.1754549495786355 9.999788848053127 1.1754549495786355 C 10.127961889139081 1.1754549495786355 10.204626138012923 1.2760767762255532 10.287279781330035 1.4210201217526608 C 13.158594878493705 6.38862393289384 16.029910574596823 11.356227684141071 18.901226270699937 16.32502955385274 C 18.985077792905702 16.46877502049119 19.034190827340506 16.586167151579264 18.971901125130508 16.696372009335413 C 18.909611422920513 16.805378988202904 18.782636260723212 16.823347171532713 18.61732897408899 16.824545050421364 L 1.3822480631838743 16.824545050421364 C 1.218138655438306 16.823347171532713 1.0911634932410053 16.805378988202904 1.0288737910310086 16.696372009335413 C 0.9653862099323581 16.586167151579264 1.0144992443671632 16.468775020491194 1.0995486454615817 16.32502955385274 Z " fill-rule="evenodd" fill="rgb(249,162,34)" stroke-width="1.500000025475893" stroke="rgb(44,44,43)" stroke-linejoin="round" stroke-linecap="butt"/><path d=" M 9.402736062975867 11.978534032161045 L 8.589759618824317 7.249865193439138 C 8.57570849946041 7.170945338617961 8.569215995883905 7.089864510281653 8.569215995883905 7.01094525439992 C 8.569215995883905 6.330942350980606 9.012461131658021 5.992562527816464 9.90003188996382 5.992562527816464 C 10.787603846148505 5.992562527816464 11.23084898192262 6.328780179586587 11.23084898192262 7.00445874021786 C 11.23084898192262 7.096351623403157 11.223302344924102 7.179594623133486 11.210305358982207 7.249865193439138 L 10.397328914830657 11.978534032161045 L 9.402730073581422 11.978534032161045 L 9.402736062975867 11.978534032161045 Z  M 9.900035483600485 12.950431032076182 C 10.67517332941724 12.950431032076182 11.063283693583287 13.338540198363342 11.063283693583287 14.112597557422527 C 11.063283693583287 14.88989877251219 10.67517332941724 15.278007938799348 9.900035483600485 15.278007938799348 C 9.122734268510824 15.278007938799348 8.734625102223664 14.889898772512188 8.734625102223664 14.112597557422527 C 8.734625102223664 13.33854019836334 9.122734268510824 12.950431032076182 9.900035483600485 12.950431032076182 Z " fill-rule="evenodd" fill="rgb(44,44,43)" stroke-width="1.2499999691465786" stroke="rgba(0,0,0,0)" stroke-linecap="butt"/></svg>